<svg xmlns:dc="http://purl.org/dc/elements/1.1/" xmlns:cc="http://creativecommons.org/ns#" xmlns:rdf="http://www.w3.org/1999/02/22-rdf-syntax-ns#" xmlns:svg="http://www.w3.org/2000/svg" xmlns="http://www.w3.org/2000/svg" xmlns:sodipodi="http://sodipodi.sourceforge.net/DTD/sodipodi-0.dtd" xmlns:inkscape="http://www.inkscape.org/namespaces/inkscape" version="1.1" x="0px" y="0px" viewBox="0 0 100 125"><g transform="translate(0,-952.36218)"><path d="m 73.137944,954.87438 c -8.90441,-0.33584 -16.48125,6.29725 -17.5065,14.99777 -15.5698,-8e-5 -30.73451,-2e-4 -43.32858,0 -0.73605,0.071 -1.41169,0.58493 -1.67628,1.27508 -0.26459,0.69015 -0.10556,1.52375 0.39455,2.06817 l 30.48007,33.4013 0,39.2442 c -3.72351,0 -7.48261,0 -11.19166,0 -1.04773,0.049 -1.95646,1.0462 -1.90735,2.0934 0.0491,1.0472 1.04721,1.9552 2.09492,1.906 l 26.00966,0 c 1.04846,10e-4 2.00335,-0.9518 2.00335,-1.9997 0,-1.048 -0.95489,-2.0011 -2.00335,-1.9997 l -11.00409,0 0,-39.2442 c 6.38918,-6.95628 12.58878,-13.80287 18.35057,-20.12203 2.42592,1.43319 5.16895,2.23651 8.00297,2.3434 9.36196,0.3531 17.27826,-6.98422 17.63154,-16.34131 0.35328,-9.3571 -6.98785,-17.26929 -16.34982,-17.62238 z m -2.62597,4.12438 0,8.03006 -5.68961,-5.68666 c 1.64554,-1.20295 3.58834,-2.02364 5.68961,-2.3434 z m 4.00148,0.0312 c 2.10726,0.32487 4.05507,1.1178 5.68961,2.31215 l -5.68961,5.68666 z m -12.50464,5.15548 5.68961,5.68666 c -2.82085,-7e-5 -5.38814,4e-5 -8.03423,0 0.32104,-2.11844 1.14594,-4.04482 2.34462,-5.68666 z m 21.0078,0 c 1.20358,1.64703 2.02469,3.58549 2.34462,5.68666 l -8.03423,0 z m -65.99325,9.68606 c 18.99308,-3.4e-4 33.9387,-5.4e-4 52.9259,0 -8.77913,9.67388 -18.49081,20.27937 -26.44732,28.9957 z m 60.3349,0 8.00297,0 c -0.32431,2.10652 -1.15171,4.02147 -2.34462,5.65541 z m -2.84481,2.81208 5.68961,5.68666 c -1.64554,1.20295 -3.58834,2.02364 -5.68961,2.3434 z m -4.00148,2.53088 0,5.46793 c -1.3478,-0.20951 -2.66168,-0.60514 -3.87644,-1.21857 1.29204,-1.41635 2.77903,-3.04642 3.87644,-4.24936 z" style="text-indent:0;text-transform:none;direction:ltr;block-progression:tb;baseline-shift:baseline;color:#000000;enable-background:accumulate;" fill="#000000" fill-opacity="1" stroke="none" marker="none" visibility="visible" display="inline" overflow="visible"/></g><text x="0" y="115" fill="#000000" font-size="5px" font-weight="bold" font-family="'Helvetica Neue', Helvetica, Arial-Unicode, Arial, Sans-serif">Created by arif fajar yulianto</text><text x="0" y="120" fill="#000000" font-size="5px" font-weight="bold" font-family="'Helvetica Neue', Helvetica, Arial-Unicode, Arial, Sans-serif">from the Noun Project</text></svg>