<svg width="50" height="63" viewBox="0 0 50 63" fill="none" xmlns="http://www.w3.org/2000/svg">
<path d="M41.2255 42.2782C42.0612 41.7589 42.702 41.0362 43.0809 40.1903C43.7748 38.6307 43.6173 37.054 42.6224 35.63C41.8381 34.5102 40.6485 33.6974 39.2711 33.3404C36.4589 32.6105 35.4117 30.3701 35.3693 30.2765L34.0406 27.2969L37.6937 13.6002C38.2939 11.3517 38.5984 9.0309 38.5984 6.70305V4.26711C38.5984 3.92091 38.3558 3.62205 38.0195 3.55157C37.6725 3.47479 37.3432 3.65867 37.2069 3.97633L30.5497 19.4671L24.0567 4.9042L23.7583 4.23591C23.6158 3.91471 23.2635 3.74343 22.9263 3.82542C22.5863 3.90841 22.3545 4.22341 22.3731 4.57493C22.5732 8.28937 23.2211 11.9754 24.2992 15.5309L27.6602 26.6256C26.2752 28.3774 23.0928 32.2638 21.8455 33.1558L19.2228 35.0322C17.4223 36.3206 16.423 38.4129 16.6142 40.4937C16.854 43.1009 18.2633 44.723 20.4797 44.946C20.6886 44.9656 20.8922 44.9763 21.0922 44.9763C22.3093 44.9763 23.3512 44.5838 24.1939 43.8057C26.3368 41.8285 26.3564 38.1104 26.351 37.692C26.3484 37.5161 26.3536 37.3413 26.3678 37.1682C26.4652 36.0645 27.3229 32.8345 30.1165 31.157L31.0082 30.5686C32.5808 32.0679 34.2447 34.2252 34.0157 36.5195C33.6068 40.6185 36.9837 45.3564 41.1016 46.461C41.2113 46.4895 41.3211 46.5038 41.4291 46.5038C41.9248 46.5038 42.3727 46.2039 42.5586 45.7115C42.7852 45.1154 42.5392 44.473 41.9762 44.1804C41.7673 44.0733 41.5478 43.9501 41.323 43.8109C40.8662 43.529 40.5936 43.2346 40.5936 43.0257C40.5936 42.8168 40.8537 42.5102 41.2255 42.2782ZM37.1209 7.85486C37.0386 9.66611 36.7607 11.4667 36.2933 13.22L33.101 25.1893L31.3549 21.2731L37.1209 7.85486ZM29.3483 29.9178C26.1758 31.8209 25.0666 35.4087 24.9233 37.0416C24.9038 37.2646 24.8985 37.4877 24.9011 37.7108C24.9011 37.7446 24.9214 41.1522 23.2149 42.7279C22.543 43.349 21.7003 43.6113 20.6239 43.4899C18.7243 43.3007 18.18 41.6822 18.0587 40.3581C17.9145 38.7958 18.6827 37.2121 20.0618 36.2244L22.6846 34.3479C24.0053 33.4029 26.8284 29.9859 28.2239 28.2514C28.2819 28.3427 28.3243 28.4466 28.417 28.5046C28.4364 28.5165 29.0553 28.909 29.8739 29.5709L29.3483 29.9178ZM40.4643 41.0344C40.0659 41.2807 39.1418 41.9712 39.1436 43.0277C39.1436 43.4381 39.2817 43.8253 39.5561 44.1858C37.0324 42.5744 35.186 39.3979 35.4586 36.6658C35.9216 32.0296 30.6274 28.2206 29.4147 27.4131L25.6854 15.1044C25.0799 13.1057 24.6143 11.0642 24.293 8.99959L34.0458 30.8751C34.0998 30.9956 35.4001 33.8454 38.9099 34.7555C39.9544 35.0268 40.852 35.6361 41.4361 36.4722C42.139 37.4778 42.2435 38.4977 41.7583 39.5906C41.4982 40.1688 41.052 40.6685 40.4643 41.0344Z" fill="#042A2B"/>
<path d="M36.9864 35.7582C36.4721 36.1553 36.1729 36.7942 36.1649 37.5097C36.1588 38.1682 36.3924 38.8437 36.8244 39.412C37.2572 39.9787 37.8441 40.382 38.4779 40.5461C38.6815 40.5997 38.8869 40.6247 39.0851 40.6247C39.5595 40.6247 40.0075 40.4802 40.3686 40.1999C40.882 39.802 41.1795 39.164 41.1883 38.4484C41.1935 37.7891 40.9598 37.1136 40.5279 36.5461C39.5932 35.3227 38.007 34.9677 36.9864 35.7582ZM39.4852 39.04C39.4852 39.04 39.4835 39.04 39.4835 39.0408C39.2675 39.2095 38.9895 39.1693 38.8373 39.13C38.5221 39.0479 38.207 38.8266 37.9751 38.5224C37.7431 38.2172 37.6122 37.8532 37.6157 37.5248C37.6166 37.3696 37.652 37.0858 37.8688 36.918C37.9786 36.8324 38.1167 36.7922 38.2672 36.7922C38.6301 36.7922 39.0674 37.0296 39.3772 37.4364C39.6092 37.7407 39.7401 38.1047 39.7366 38.4331C39.7366 38.5884 39.7011 38.8731 39.4852 39.04Z" fill="#042A2B"/>
<path d="M22.6854 36.9404C22.0923 36.6521 21.3789 36.6879 20.7256 37.0367C20.1361 37.3517 19.6351 37.8942 19.3138 38.5652C18.9244 39.378 18.85 40.2721 19.1076 41.0162C19.2997 41.5694 19.6706 42.003 20.153 42.2368C20.4176 42.3652 20.7089 42.4313 21.009 42.4313C21.2524 42.4313 21.5029 42.3885 21.749 42.3011C22.4882 42.0405 23.1352 41.4249 23.5247 40.6111C23.8451 39.9401 23.9548 39.2067 23.8318 38.5455C23.6954 37.8139 23.2776 37.2286 22.6854 36.9404ZM22.218 39.9758C21.9976 40.4362 21.6435 40.7896 21.2709 40.9216C21.1443 40.9679 20.9531 41.0037 20.7832 40.9198C20.7823 40.9198 20.7823 40.9198 20.7814 40.9198C20.6115 40.8377 20.522 40.6646 20.4769 40.5343C20.3468 40.1578 20.3999 39.6599 20.6203 39.2004C20.8052 38.8131 21.0912 38.4955 21.4046 38.3277C21.5019 38.276 21.6622 38.2072 21.8295 38.2072C21.9047 38.2072 21.9817 38.2215 22.0551 38.2573C22.2915 38.3723 22.3764 38.6561 22.4056 38.8149C22.4713 39.1665 22.4031 39.5895 22.218 39.9758Z" fill="#042A2B"/>
<path d="M30.5709 25.1543C30.1255 25.1543 29.7644 25.5182 29.7644 25.9671C29.7644 26.4162 30.1254 26.7801 30.5709 26.7801C31.0164 26.7801 31.3774 26.4162 31.3774 25.9671C31.3774 25.5182 31.0164 25.1543 30.5709 25.1543Z" fill="#042A2B"/>
<path d="M11.9651 36.2911L11.8205 30.1216L11.848 29.5498C11.8949 29.2849 12.0076 29.2451 12.2342 29.2058L12.7821 29.1023C14.117 28.8426 16.5972 28.3572 19.2908 28.6338C19.7068 28.6883 20.0459 28.3805 20.0848 27.9798C20.1247 27.5783 19.8343 27.2196 19.436 27.1794C16.5371 26.8868 13.9152 27.3935 12.5077 27.6666L11.9863 27.7656C11.9662 27.7692 11.9529 27.7771 11.9333 27.781L12.0067 26.2586H19.3633C19.7634 26.2586 20.0883 25.9311 20.0883 25.5278C20.0883 25.1245 19.7634 24.797 19.3633 24.797H12.0771L12.1081 24.1536L19.3632 24.1528C19.7641 24.1528 20.0882 23.8253 20.0882 23.422C20.0882 23.0178 19.7633 22.6912 19.3632 22.6912L12.1785 22.692L12.2094 22.0487L19.3632 22.0479C19.7641 22.0479 20.0882 21.7204 20.0882 21.3171C20.0882 20.9129 19.7633 20.5863 19.3632 20.5863L12.28 20.5871L12.311 19.943H19.3631C19.7632 19.943 20.0881 19.6155 20.0881 19.2122C20.0881 18.8089 19.7632 18.4814 19.3631 18.4814H12.3814L12.4124 17.8381H19.363C19.7631 17.8381 20.088 17.5106 20.088 17.1073C20.088 16.704 19.7631 16.3765 19.363 16.3765H12.4828L12.5138 15.7332H19.3629C19.763 15.7332 20.0879 15.4057 20.0879 15.0024C20.0879 14.5991 19.763 14.2716 19.3629 14.2716H12.5843L12.6152 13.6282L19.3628 13.6274C19.7637 13.6274 20.0878 13.2999 20.0878 12.8966C20.0878 12.4925 19.7629 12.1658 19.3628 12.1658L12.6856 12.1666L12.7167 11.5226H19.3627C19.7628 11.5226 20.0877 11.1951 20.0877 10.7918C20.0877 10.3885 19.7628 10.061 19.3627 10.061H12.7872L12.8181 9.41767H19.3627C19.7628 9.41767 20.0877 9.09017 20.0877 8.68687C20.0877 8.28357 19.7628 7.95607 19.3627 7.95607H12.8886L12.9196 7.31278H19.3627C19.7628 7.31278 20.0877 6.98528 20.0877 6.58198C20.0877 6.17868 19.7628 5.85118 19.3627 5.85118H12.9901L13.0379 4.86149L19.4627 4.8546C19.8628 4.8546 20.1877 4.5271 20.1868 4.12291C20.1868 3.71961 19.8619 3.393 19.4618 3.393H19.4609L10.4676 3.40727C9.69304 3.31897 8.94509 3.63299 8.45378 4.23257C8.13513 4.62071 7.94831 5.11231 7.92888 5.61828L7.30486 22.084L6.79675 32.5074L6.49577 42.6559C6.46482 43.673 6.75515 44.651 7.31364 45.4129C7.86687 46.166 8.86003 47.0065 10.5312 47.0065C10.7455 47.0065 10.9694 46.9922 11.2057 46.9637C12.499 46.8031 13.1195 46.1356 13.4125 45.6039C14.3508 43.9015 13.2417 41.3799 13.1071 41.0891C12.3882 39.5782 12.004 37.9642 11.9651 36.2911ZM12.1457 44.8942C12.0758 45.0227 11.8615 45.41 11.0295 45.5116C9.89997 45.6669 9.06257 45.3367 8.48015 44.5444C8.11452 44.0465 7.92517 43.3916 7.94636 42.6992L8.24646 32.565L8.75456 22.1478L9.37946 5.67507C9.38659 5.48863 9.45466 5.30839 9.57243 5.16468C9.753 4.9425 10.0248 4.82379 10.3912 4.86483L11.5868 4.86346L10.4038 29.3969C10.3649 29.6805 10.3654 29.9456 10.3699 30.1326L10.5151 36.3249C10.5585 38.2066 10.9914 40.0224 11.7968 41.7124C12.0447 42.2532 12.6414 43.9949 12.1457 44.8942Z" fill="#042A2B"/>
<path d="M10.1494 41.9082C9.46719 41.9082 8.91406 42.4657 8.91406 43.1533C8.91406 43.841 9.46719 44.3986 10.1494 44.3986C10.8315 44.3986 11.3847 43.841 11.3847 43.1533C11.3847 42.4657 10.8315 41.9082 10.1494 41.9082Z" fill="#042A2B"/>
</svg>
