<svg width="43" height="43" viewBox="0 0 43 43" fill="none" xmlns="http://www.w3.org/2000/svg">
<path d="M0.5375 43H42.4625C42.7596 43 43 42.7596 43 42.4625C43 42.1654 42.7596 41.925 42.4625 41.925H41.7586V9.36058C41.7586 9.06349 41.5182 8.82308 41.2211 8.82308H39.0134V4.09476C39.0134 3.79767 38.773 3.55726 38.4759 3.55726H33.2011V0.5375C33.2011 0.240405 32.9607 0 32.6636 0C32.3665 0 32.1261 0.240405 32.1261 0.5375V3.55726H26.8509C26.5538 3.55726 26.3134 3.79767 26.3134 4.09476V8.82308H24.1056C23.8085 8.82308 23.5681 9.06349 23.5681 9.36058V41.925H19.4319V18.0383C19.4319 17.7412 19.1915 17.5008 18.8944 17.5008H16.6866V12.2843C16.6866 11.9872 16.4462 11.7468 16.1491 11.7468H4.52413C4.22704 11.7468 3.98663 11.9872 3.98663 12.2843V17.5008H1.77889C1.4818 17.5008 1.24139 17.7412 1.24139 18.0383V41.925H0.5375C0.240405 41.925 0 42.1654 0 42.4625C0 42.7596 0.240405 43 0.5375 43ZM35.9731 41.925H29.3541V35.9815H35.9731V41.925ZM27.3884 4.63226H37.9384V8.82308H27.3884V4.63226ZM24.6431 9.89808H40.6836V41.925H37.0481V35.444C37.0481 35.1469 36.8077 34.9065 36.5106 34.9065H28.8166C28.5195 34.9065 28.2791 35.1469 28.2791 35.444V41.925H24.6431V9.89808ZM5.06163 12.8218H15.6116V17.5008H5.06163V12.8218ZM2.31639 18.5758H18.3569V41.925H2.31639V18.5758Z" fill="black"/>
<path d="M28.0434 19.6302C28.5601 19.6302 28.9782 19.4107 28.9782 19.1395V14.5122C28.9782 14.2409 28.5601 14.0215 28.0434 14.0215C27.5267 14.0215 27.1086 14.2409 27.1086 14.5122V19.1395C27.1086 19.4107 27.5267 19.6302 28.0434 19.6302Z" fill="black"/>
<path d="M33.1848 19.6302C33.4431 19.6302 33.6522 19.4107 33.6522 19.1395V14.5122C33.6522 14.2409 33.4431 14.0215 33.1848 14.0215C32.9265 14.0215 32.7174 14.2409 32.7174 14.5122V19.1395C32.7174 19.4107 32.9265 19.6302 33.1848 19.6302Z" fill="black"/>
<path d="M36.9239 19.6302C37.1823 19.6302 37.3913 19.4107 37.3913 19.1395V14.5122C37.3913 14.2409 37.1823 14.0215 36.9239 14.0215C36.6656 14.0215 36.4565 14.2409 36.4565 14.5122V19.1395C36.4565 19.4107 36.6656 19.6302 36.9239 19.6302Z" fill="black"/>
<path d="M28.0434 28.0433C28.5601 28.0433 28.9782 27.8238 28.9782 27.5526V22.9252C28.9782 22.654 28.5601 22.4346 28.0434 22.4346C27.5267 22.4346 27.1086 22.654 27.1086 22.9252V27.5526C27.1086 27.8238 27.5267 28.0433 28.0434 28.0433Z" fill="black"/>
<path d="M33.1848 28.0433C33.4431 28.0433 33.6522 27.8238 33.6522 27.5526V22.9252C33.6522 22.654 33.4431 22.4346 33.1848 22.4346C32.9265 22.4346 32.7174 22.654 32.7174 22.9252V27.5526C32.7174 27.8238 32.9265 28.0433 33.1848 28.0433Z" fill="black"/>
<path d="M36.9239 28.0433C37.1823 28.0433 37.3913 27.8238 37.3913 27.5526V22.9252C37.3913 22.654 37.1823 22.4346 36.9239 22.4346C36.6656 22.4346 36.4565 22.654 36.4565 22.9252V27.5526C36.4565 27.8238 36.6656 28.0433 36.9239 28.0433Z" fill="black"/>
<path d="M14.9565 21.5C14.4398 21.5 14.0217 21.7993 14.0217 22.1692V25.5047C14.0217 25.8746 14.4398 26.1739 14.9565 26.1739C15.4732 26.1739 15.8913 25.8746 15.8913 25.5047V22.1692C15.8913 21.7993 15.4732 21.5 14.9565 21.5Z" fill="black"/>
<path d="M9.81517 21.5C9.55683 21.5 9.34778 21.7993 9.34778 22.1692V25.5047C9.34778 25.8746 9.55683 26.1739 9.81517 26.1739C10.0735 26.1739 10.2826 25.8746 10.2826 25.5047V22.1692C10.2826 21.7993 10.0735 21.5 9.81517 21.5Z" fill="black"/>
<path d="M6.07603 21.5C5.81769 21.5 5.60864 21.7993 5.60864 22.1692V25.5047C5.60864 25.8746 5.81769 26.1739 6.07603 26.1739C6.33438 26.1739 6.54343 25.8746 6.54343 25.5047V22.1692C6.54343 21.7993 6.33438 21.5 6.07603 21.5Z" fill="black"/>
<path d="M14.9565 28.0439C14.4398 28.0439 14.0217 28.3433 14.0217 28.7132V32.0486C14.0217 32.4185 14.4398 32.7179 14.9565 32.7179C15.4732 32.7179 15.8913 32.4185 15.8913 32.0486V28.7132C15.8913 28.3433 15.4732 28.0439 14.9565 28.0439Z" fill="black"/>
<path d="M9.81517 28.0439C9.55683 28.0439 9.34778 28.3433 9.34778 28.7132V32.0486C9.34778 32.4185 9.55683 32.7179 9.81517 32.7179C10.0735 32.7179 10.2826 32.4185 10.2826 32.0486V28.7132C10.2826 28.3433 10.0735 28.0439 9.81517 28.0439Z" fill="black"/>
<path d="M6.07603 28.0439C5.81769 28.0439 5.60864 28.3433 5.60864 28.7132V32.0486C5.60864 32.4185 5.81769 32.7179 6.07603 32.7179C6.33438 32.7179 6.54343 32.4185 6.54343 32.0486V28.7132C6.54343 28.3433 6.33438 28.0439 6.07603 28.0439Z" fill="black"/>
<path d="M14.9565 35.5215C14.4398 35.5215 14.0217 35.6412 14.0217 35.7892V37.1233C14.0217 37.2713 14.4398 37.391 14.9565 37.391C15.4732 37.391 15.8913 37.2713 15.8913 37.1233V35.7892C15.8913 35.6412 15.4732 35.5215 14.9565 35.5215Z" fill="black"/>
<path d="M9.81517 35.5215C9.55683 35.5215 9.34778 35.6412 9.34778 35.7892V37.1233C9.34778 37.2713 9.55683 37.391 9.81517 37.391C10.0735 37.391 10.2826 37.2713 10.2826 37.1233V35.7892C10.2826 35.6412 10.0735 35.5215 9.81517 35.5215Z" fill="black"/>
<path d="M6.07603 35.5215C5.81769 35.5215 5.60864 35.6412 5.60864 35.7892V37.1233C5.60864 37.2713 5.81769 37.391 6.07603 37.391C6.33438 37.391 6.54343 37.2713 6.54343 37.1233V35.7892C6.54343 35.6412 6.33438 35.5215 6.07603 35.5215Z" fill="black"/>
<path d="M0.517886 7.47826C0.80414 7.47826 1.03577 7.26255 1.03577 6.99597C1.03577 5.85431 2.03311 4.92554 3.25904 4.92554C3.44769 4.92554 3.64594 4.95568 3.88314 5.02067C4.05762 5.06871 4.24626 5.02821 4.38029 4.91282C4.5138 4.79837 4.57348 4.62646 4.53656 4.46068C4.49307 4.26428 4.47082 4.06505 4.47082 3.86771C4.47082 2.26684 5.86972 0.964572 7.58875 0.964572C9.30779 0.964572 10.7062 2.26684 10.7062 3.86771L10.6986 3.99299C10.688 4.20729 10.8301 4.40227 11.0476 4.47198C11.9483 4.76069 12.5532 5.54346 12.5532 6.42043C12.5532 6.68701 12.7848 6.90272 13.0711 6.90272H17.243C17.5292 6.90272 17.7609 6.68701 17.7609 6.42043C17.7609 6.15386 17.5292 5.93815 17.243 5.93815H13.547C13.3775 4.96651 12.7024 4.12534 11.7379 3.69486C11.6403 1.64232 9.81658 0 7.58875 0C5.29822 0 3.43504 1.7351 3.43504 3.86771C3.43504 3.90068 3.43555 3.93365 3.43656 3.96614C1.57338 3.86159 0 5.26747 0 6.99597C0 7.26255 0.231633 7.47826 0.517886 7.47826Z" fill="black"/>
</svg>
