<svg width="45" height="56" viewBox="0 0 45 56" fill="none" xmlns="http://www.w3.org/2000/svg">
<path d="M3.15482 4.4805C2.65775 4.4805 2.25482 4.88165 2.25482 5.3765C2.25482 5.87135 2.65775 6.2725 3.15482 6.2725H8.72357L13.4626 28.5885C13.4143 29.099 13.8904 29.5942 14.4048 29.5685H36.9048C37.3803 29.5752 37.8176 29.1459 37.8176 28.6725C37.8176 28.1991 37.3803 27.7698 36.9048 27.7765H15.1361L14.3767 24.1925H38.7048C39.1078 24.188 39.4885 23.8839 39.5767 23.4925L42.7267 10.0525C42.8437 9.5325 42.3901 8.96431 41.8548 8.9605H11.1423L10.3408 5.1805C10.2516 4.78447 9.86248 4.47703 9.45482 4.4805H3.15482ZM11.522 10.7525H40.7298L37.9876 22.4005H13.997L11.522 10.7525ZM18.9048 32.2565C16.6788 32.2565 14.8548 34.0723 14.8548 36.2885C14.8548 38.5047 16.6788 40.3205 18.9048 40.3205C21.1309 40.3205 22.9548 38.5047 22.9548 36.2885C22.9548 34.0723 21.1309 32.2565 18.9048 32.2565ZM32.4048 32.2565C30.1788 32.2565 28.3548 34.0723 28.3548 36.2885C28.3548 38.5047 30.1788 40.3205 32.4048 40.3205C34.6309 40.3205 36.4548 38.5047 36.4548 36.2885C36.4548 34.0723 34.6309 32.2565 32.4048 32.2565ZM18.9048 34.0485C20.1581 34.0485 21.1548 35.0407 21.1548 36.2885C21.1548 37.5362 20.1581 38.5285 18.9048 38.5285C17.6516 38.5285 16.6548 37.5362 16.6548 36.2885C16.6548 35.0408 17.6516 34.0485 18.9048 34.0485ZM32.4048 34.0485C33.6581 34.0485 34.6548 35.0407 34.6548 36.2885C34.6548 37.5362 33.6581 38.5285 32.4048 38.5285C31.1516 38.5285 30.1548 37.5362 30.1548 36.2885C30.1548 35.0408 31.1516 34.0485 32.4048 34.0485Z" fill="#042A2B"/>
</svg>
