<svg width="40" height="40" viewBox="0 0 40 40" fill="none" xmlns="http://www.w3.org/2000/svg">
<path d="M38.8746 17.791H25.6967C25.333 17.791 25.0378 18.0862 25.0378 18.4499V38.8755C25.0378 39.2393 25.333 39.5344 25.6967 39.5344H28.9912H35.5801H38.8746C39.2383 39.5344 39.5335 39.2393 39.5335 38.8755V18.4499C39.5335 18.0862 39.2383 17.791 38.8746 17.791ZM29.6501 38.2167V34.9222H34.9212V38.2167H29.6501ZM38.2157 38.2167H36.239V34.2633C36.239 33.8996 35.9438 33.6044 35.5801 33.6044H28.9912C28.6275 33.6044 28.3323 33.8996 28.3323 34.2633V38.2167H26.3556V19.1088H38.2157V38.2167Z" fill="#042A2B"/>
<path d="M0.658892 39.5337H23.0612C23.4249 39.5337 23.7201 39.2385 23.7201 38.8748V36.2393C23.7201 35.8755 23.4249 35.5804 23.0612 35.5804H13.1778V30.9681V25.697V20.4258V15.1547V10.5425H31.6268V12.6318C30.8598 12.9039 30.309 13.6366 30.309 14.4958C30.309 15.5856 31.1959 16.4725 32.2857 16.4725C33.3755 16.4725 34.2624 15.5856 34.2624 14.4958H32.9446C32.9446 14.8589 32.6487 15.1547 32.2857 15.1547C31.9226 15.1547 31.6268 14.8589 31.6268 14.4958C31.6268 14.1328 31.9226 13.8369 32.2857 13.8369C32.6494 13.8369 32.9446 13.5417 32.9446 13.178V10.5425H34.9213V9.22469H32.4129L27.4712 7.24801H32.2857V5.93023H24.1767L9.46959 0.0469862C9.19549 -0.0617309 8.88449 0.0226071 8.70462 0.254537L4.29004 5.93023H0V7.24801H2.63557V9.22469H0V10.5425H3.95335V35.5804H0.658892C0.295183 35.5804 0 35.8755 0 36.2393V38.8748C0 39.2385 0.295183 39.5337 0.658892 39.5337ZM10.5423 7.24801V8.47685L9.06767 7.24801H10.5423ZM12.5189 9.22469H11.86V7.99586L13.3346 9.22469H12.5189ZM8.83837 31.627H11.86V34.6487L8.83837 31.627ZM10.9284 19.767H7.9067V16.7453L10.9284 19.767ZM10.9284 25.0381H7.9067V22.0164L10.9284 25.0381ZM10.9284 30.3092H7.9067V27.2875L10.9284 30.3092ZM8.83837 26.3559H11.86V29.3776L8.83837 26.3559ZM8.83837 21.0847H11.86V24.1064L8.83837 21.0847ZM8.83837 15.8136H11.86V18.8353L8.83837 15.8136ZM7.9067 14.4958V11.4741L10.9284 14.4958H7.9067ZM20.9277 7.24801H22.4023V8.47685L20.9277 7.24801ZM21.2413 9.22469H19.7667V7.99586L21.2413 9.22469ZM18.449 8.47685L16.9744 7.24801H18.449V8.47685ZM17.288 9.22469H15.8134V7.99586L17.288 9.22469ZM14.4956 8.47685L13.021 7.24801H14.4956V8.47685ZM9.3813 9.22469H7.9067V7.99586L9.3813 9.22469ZM6.58892 8.47685L5.11432 7.24801H6.58892V8.47685ZM7.9067 32.5587L10.9284 35.5804H7.9067V32.5587ZM11.86 13.5641L8.83837 10.5425H11.86V13.5641ZM28.8641 9.22469H23.7201V7.24801H23.9224L28.8641 9.22469ZM9.88337 5.93023V1.63228L20.6279 5.93023H9.88337ZM8.56559 2.57911V5.93023H5.95967L8.56559 2.57911ZM3.95335 7.99586L5.42795 9.22469H3.95335V7.99586ZM5.27113 10.5425H6.58892V15.1547V20.4258V25.697V30.9681V35.5804H5.27113V10.5425ZM1.31778 36.8981H7.24781H12.5189H22.4023V38.2159H1.31778V36.8981Z" fill="#042A2B"/>
</svg>
