<svg width="41" height="41" viewBox="0 0 41 41" fill="none" xmlns="http://www.w3.org/2000/svg">
<path d="M41 13.0688V7.77292C41 5.89375 39.4625 4.35625 37.5833 4.35625H33.2271V0.854167C33.2271 0.341667 32.8854 0 32.3729 0C31.8604 0 31.5188 0.341667 31.5188 0.854167V4.35625H21.3542V0.854167C21.3542 0.341667 21.0125 0 20.5 0C19.9875 0 19.6458 0.341667 19.6458 0.854167V4.35625H9.48125V0.854167C9.48125 0.341667 9.13958 0 8.62708 0C8.11458 0 7.77292 0.341667 7.77292 0.854167V4.35625H3.41667C1.5375 4.35625 0 5.89375 0 7.77292V37.5833C0 39.4625 1.5375 41 3.41667 41H37.5833C39.4625 41 41 39.4625 41 37.5833V13.0688ZM39.2917 37.5833C39.2917 38.5229 38.5229 39.2917 37.5833 39.2917H3.41667C2.47708 39.2917 1.70833 38.5229 1.70833 37.5833V13.9229H39.2917V37.5833ZM39.2917 12.2146H1.70833V7.77292C1.70833 6.83333 2.47708 6.06458 3.41667 6.06458H7.77292V8.28542H6.74792C6.23542 8.28542 5.89375 8.62708 5.89375 9.13958C5.89375 9.65208 6.23542 9.99375 6.74792 9.99375H10.5063C11.0188 9.99375 11.3604 9.65208 11.3604 9.13958C11.3604 8.62708 11.0188 8.28542 10.5063 8.28542H9.48125V6.06458H19.6458V8.28542H18.6208C18.1083 8.28542 17.7667 8.62708 17.7667 9.13958C17.7667 9.65208 18.1083 9.99375 18.6208 9.99375H22.3792C22.8917 9.99375 23.2333 9.65208 23.2333 9.13958C23.2333 8.62708 22.8917 8.28542 22.3792 8.28542H21.3542V6.06458H31.5188V8.28542H30.4938C29.9813 8.28542 29.6396 8.62708 29.6396 9.13958C29.6396 9.65208 29.9813 9.99375 30.4938 9.99375H34.2521C34.7646 9.99375 35.1063 9.65208 35.1063 9.13958C35.1063 8.62708 34.7646 8.28542 34.2521 8.28542H33.2271V6.06458H37.5833C38.5229 6.06458 39.2917 6.83333 39.2917 7.77292V12.2146Z" fill="#042A2B"/>
<path d="M5.12467 36.7291H35.8747C36.3872 36.7291 36.7288 36.3874 36.7288 35.8749V17.3395C36.7288 16.827 36.3872 16.4854 35.8747 16.4854H5.12467C4.61217 16.4854 4.27051 16.827 4.27051 17.3395V35.8749C4.27051 36.3874 4.61217 36.7291 5.12467 36.7291ZM5.97884 18.1937H35.0205V35.0208H5.97884V18.1937Z" fill="#042A2B"/>
<path d="M27.1623 24.2579L23.0623 23.66L21.2686 19.9871C21.0977 19.7309 20.8415 19.4746 20.4998 19.4746C20.1581 19.4746 19.9019 19.6454 19.7311 19.9871L17.9373 23.66L13.8373 24.2579C13.4956 24.3434 13.2394 24.5142 13.154 24.8559C13.0686 25.1975 13.154 25.5392 13.4102 25.71L16.3998 28.6142L15.7165 32.7142C15.6311 33.0559 15.8019 33.3975 16.0581 33.5684C16.3144 33.7392 16.6561 33.8246 16.9977 33.6538L20.6706 31.6892L24.3436 33.6538C24.429 33.7392 24.5998 33.7392 24.7706 33.7392C24.9415 33.7392 25.1123 33.6538 25.2831 33.5684C25.5394 33.3975 25.7102 33.0559 25.6248 32.7142L24.9415 28.6142L27.9311 25.71C28.1873 25.4538 28.2727 25.1121 28.1873 24.8559C27.7602 24.5996 27.504 24.3434 27.1623 24.2579ZM23.1477 27.76C22.9769 27.9309 22.8915 28.2725 22.8915 28.5288L23.404 31.3475L20.8415 29.9809C20.5852 29.81 20.329 29.81 20.0727 29.9809L17.5102 31.3475L18.0227 28.5288C18.1081 28.2725 17.9373 27.9309 17.7665 27.76L15.7165 25.7954L18.5352 25.3684C18.7915 25.3684 19.0477 25.1121 19.2186 24.9413L20.4998 22.3788L21.7811 24.9413C21.8665 25.1975 22.1227 25.3684 22.4644 25.3684L25.2831 25.7954L23.1477 27.76Z" fill="#042A2B"/>
</svg>
