<svg width="45" height="40" viewBox="0 0 45 40" fill="none" xmlns="http://www.w3.org/2000/svg">
<path d="M36.3756 18.8753C36.3756 10.6763 30.1516 4.00684 22.4999 4.00684C14.8482 4.00684 8.62415 10.6763 8.62415 18.8753C8.62415 27.075 14.8482 33.7453 22.4999 33.7453C30.1516 33.7453 36.3756 27.075 36.3756 18.8753ZM22.4999 5.6118C27.6366 5.6118 32.0398 9.04483 33.8655 13.8974C32.7685 13.054 31.4909 12.0341 30.8594 11.3961L30.4381 10.9724L29.9108 11.2525C29.8827 11.2677 27.0524 12.7427 22.4999 12.7427C17.9474 12.7427 15.117 11.2669 15.0906 11.2533L14.5625 10.9692L14.1404 11.3961C13.5089 12.0341 12.2321 13.054 11.1343 13.8974C12.96 9.04483 17.3632 5.6118 22.4999 5.6118ZM10.2291 18.8753C10.2291 18.0375 10.3094 17.2205 10.4474 16.4253C11.2587 15.8258 13.5803 14.09 14.8667 12.9184C15.9588 13.3887 18.6568 14.3476 22.4991 14.3476C26.3414 14.3476 29.0393 13.3895 30.1315 12.9184C31.4179 14.09 33.7395 15.8258 34.5508 16.4253C34.6888 17.2205 34.7691 18.0375 34.7691 18.8753C34.7691 26.1899 29.2648 32.1403 22.4983 32.1403C15.7317 32.1403 10.2291 26.1899 10.2291 18.8753Z" fill="#042A2B"/>
<path d="M44.4663 15.5642C43.9134 14.2064 43.078 13.3244 41.9818 12.9433C40.7444 12.5123 39.543 12.8702 38.9356 13.1198C36.764 5.43522 30.3185 0 22.4999 0C14.6813 0 8.23576 5.43442 6.06344 13.1206C5.45596 12.871 4.25384 12.5139 3.01801 12.9441C1.92262 13.3252 1.08644 14.2072 0.533525 15.565C-0.507296 18.1185 0.0215405 22.0049 1.71237 24.2294C2.71628 25.5503 4.07649 26.2557 5.58837 26.2557C5.78096 26.2557 5.97597 26.2444 6.17258 26.2211L6.88197 26.1377V18.8752C6.88197 9.19165 13.7424 1.60497 22.4999 1.60497C31.2574 1.60497 38.1178 9.19084 38.1178 18.8752V25.2959C37.7872 26.2741 34.8573 34.1954 26.4016 36.1182C25.9931 35.4762 25.2805 35.0461 24.4644 35.0461H20.5338C19.2659 35.0461 18.2355 36.0773 18.2355 37.3452C18.2355 38.6131 19.2667 39.6443 20.5338 39.6443H24.4644C25.6143 39.6443 26.5605 38.7929 26.7282 37.6894C35.1944 35.7811 38.6378 28.4047 39.474 26.2524C40.961 26.2332 42.298 25.5318 43.2874 24.2294C44.9791 22.0057 45.5071 18.1185 44.4663 15.5642ZM5.27701 24.637C4.39026 24.5528 3.62309 24.0906 2.98993 23.2576C1.62811 21.4664 1.18354 18.2212 2.01972 16.17C2.38887 15.2624 2.89925 14.6879 3.53562 14.4632C4.55718 14.102 5.6622 14.6959 5.68627 14.7087C5.42065 16.0465 5.27701 17.438 5.27701 18.8752V24.637ZM20.5346 38.0393C20.1518 38.0393 19.8413 37.728 19.8413 37.3452C19.8413 36.9624 20.1526 36.651 20.5346 36.651H24.4652C24.848 36.651 25.1585 36.9624 25.1585 37.3452C25.1585 37.728 24.8472 38.0393 24.4652 38.0393H20.5346ZM42.0107 23.2576C41.3775 24.0906 40.6096 24.5528 39.7228 24.637V18.8752C39.7228 17.438 39.5792 16.0465 39.3135 14.7087C39.3368 14.6959 40.4426 14.102 41.465 14.4632C42.1006 14.6887 42.6109 15.2632 42.9809 16.17C43.8163 18.2212 43.3725 21.4664 42.0107 23.2576Z" fill="#042A2B"/>
</svg>
