<svg width="43" height="40" viewBox="0 0 43 40" fill="none" xmlns="http://www.w3.org/2000/svg">
<path d="M42.0486 35.6344H39.9105V16.8023C40.5453 16.5253 41.0855 16.0693 41.4652 15.4901C41.845 14.9109 42.0477 14.2336 42.0486 13.5411V12.1157H42.0308C42.0367 12.058 42.0355 11.9999 42.0272 11.9425L39.9105 3.47507V0.712688C39.9105 0.523671 39.8354 0.342396 39.7018 0.208742C39.5681 0.0750867 39.3868 0 39.1978 0H3.56344C3.37442 0 3.19315 0.0750867 3.05949 0.208742C2.92584 0.342396 2.85075 0.523671 2.85075 0.712688V3.47507L0.734068 11.9425C0.72695 12 0.72695 12.0582 0.734068 12.1157H0.712688V13.5411C0.713599 14.2336 0.916307 14.9109 1.29602 15.4901C1.67574 16.0693 2.216 16.5253 2.85075 16.8023V35.6344H0.712688C0.523671 35.6344 0.342396 35.7095 0.208741 35.8431C0.0750865 35.9768 0 36.1581 0 36.3471V39.1978C0 39.3868 0.0750865 39.5681 0.208741 39.7018C0.342396 39.8354 0.523671 39.9105 0.712688 39.9105H42.0486C42.2376 39.9105 42.4189 39.8354 42.5525 39.7018C42.6862 39.5681 42.7613 39.3868 42.7613 39.1978V36.3471C42.7613 36.1581 42.6862 35.9768 42.5525 35.8431C42.4189 35.7095 42.2376 35.6344 42.0486 35.6344ZM38.4851 15.6791C37.9181 15.6791 37.3743 15.4539 36.9733 15.0529C36.5723 14.6519 36.3471 14.1081 36.3471 13.5411V12.8284H40.6232V13.5411C40.6232 14.1081 40.3979 14.6519 39.997 15.0529C39.596 15.4539 39.0522 15.6791 38.4851 15.6791ZM12.7664 4.27613L12.1727 11.403H7.96785L9.1559 4.27613H12.7664ZM33.6054 4.27613L34.7934 11.403H30.5886L29.9949 4.27613H33.6054ZM28.5645 4.27613L29.1582 11.403H24.9441V4.27613H28.5645ZM23.5187 11.403H19.2426V4.27613H23.5187V11.403ZM17.8172 11.403H13.6031L14.1967 4.27613H17.8172V11.403ZM7.83957 12.8284H12.1157V13.5411C12.1157 14.1081 11.8904 14.6519 11.4895 15.0529C11.0885 15.4539 10.5447 15.6791 9.97763 15.6791C9.41058 15.6791 8.86675 15.4539 8.46579 15.0529C8.06483 14.6519 7.83957 14.1081 7.83957 13.5411V12.8284ZM13.5411 12.8284H17.8172V13.5411C17.8172 14.1081 17.5919 14.6519 17.191 15.0529C16.79 15.4539 16.2462 15.6791 15.6791 15.6791C15.1121 15.6791 14.5683 15.4539 14.1673 15.0529C13.7663 14.6519 13.5411 14.1081 13.5411 13.5411V12.8284ZM19.2426 12.8284H23.5187V13.5411C23.5187 14.1081 23.2934 14.6519 22.8925 15.0529C22.4915 15.4539 21.9477 15.6791 21.3806 15.6791C20.8136 15.6791 20.2698 15.4539 19.8688 15.0529C19.4678 14.6519 19.2426 14.1081 19.2426 13.5411V12.8284ZM24.9441 12.8284H29.2202V13.5411C29.2202 14.1081 28.9949 14.6519 28.594 15.0529C28.193 15.4539 27.6492 15.6791 27.0821 15.6791C26.5151 15.6791 25.9713 15.4539 25.5703 15.0529C25.1693 14.6519 24.9441 14.1081 24.9441 13.5411V12.8284ZM30.6456 12.8284H34.9217V13.5411C34.9217 14.1081 34.6964 14.6519 34.2955 15.0529C33.8945 15.4539 33.3507 15.6791 32.7836 15.6791C32.2166 15.6791 31.6728 15.4539 31.2718 15.0529C30.8708 14.6519 30.6456 14.1081 30.6456 13.5411V12.8284ZM36.238 11.403L35.05 4.27613H38.6412L40.4229 11.403H36.238ZM38.4851 1.42538V2.85075H4.27613V1.42538H38.4851ZM4.12005 4.27613H7.71128L6.52323 11.403H2.33833L4.12005 4.27613ZM2.13806 13.5411V12.8284H6.41419V13.5411C6.41419 14.1081 6.18893 14.6519 5.78797 15.0529C5.387 15.4539 4.84318 15.6791 4.27613 15.6791C3.70908 15.6791 3.16525 15.4539 2.76429 15.0529C2.36332 14.6519 2.13806 14.1081 2.13806 13.5411ZM4.27613 17.1045C4.83139 17.103 5.37854 16.9712 5.87364 16.7198C6.36874 16.4684 6.79798 16.1044 7.12688 15.657C7.45464 16.1056 7.88364 16.4705 8.37899 16.7221C8.87434 16.9736 9.42206 17.1047 9.97763 17.1047C10.5332 17.1047 11.0809 16.9736 11.5763 16.7221C12.0716 16.4705 12.5006 16.1056 12.8284 15.657C13.1561 16.1056 13.5851 16.4705 14.0805 16.7221C14.5758 16.9736 15.1236 17.1047 15.6791 17.1047C16.2347 17.1047 16.7824 16.9736 17.2778 16.7221C17.7731 16.4705 18.2021 16.1056 18.5299 15.657C18.8576 16.1056 19.2866 16.4705 19.782 16.7221C20.2773 16.9736 20.8251 17.1047 21.3806 17.1047C21.9362 17.1047 22.4839 16.9736 22.9793 16.7221C23.4746 16.4705 23.9036 16.1056 24.2314 15.657C24.5591 16.1056 24.9881 16.4705 25.4835 16.7221C25.9788 16.9736 26.5266 17.1047 27.0821 17.1047C27.6377 17.1047 28.1854 16.9736 28.6808 16.7221C29.1761 16.4705 29.6051 16.1056 29.9329 15.657C30.2607 16.1056 30.6896 16.4705 31.185 16.7221C31.6803 16.9736 32.2281 17.1047 32.7836 17.1047C33.3392 17.1047 33.8869 16.9736 34.3823 16.7221C34.8776 16.4705 35.3066 16.1056 35.6344 15.657C35.9633 16.1044 36.3925 16.4684 36.8876 16.7198C37.3827 16.9712 37.9299 17.103 38.4851 17.1045V35.6344H37.0598V20.6679C37.0598 20.4789 36.9847 20.2977 36.851 20.164C36.7174 20.0303 36.5361 19.9553 36.3471 19.9553H29.2202C29.0312 19.9553 28.8499 20.0303 28.7163 20.164C28.5826 20.2977 28.5075 20.4789 28.5075 20.6679V35.6344H4.27613V17.1045ZM35.6344 35.6344H29.9329V21.3806H35.6344V35.6344ZM41.3359 38.4851H1.42538V37.0598H41.3359V38.4851Z" fill="#042A2B"/>
<path d="M26.3695 19.9551H6.41423C6.22521 19.9551 6.04393 20.0302 5.91028 20.1638C5.77662 20.2975 5.70154 20.4787 5.70154 20.6678V32.0708C5.70154 32.2598 5.77662 32.4411 5.91028 32.5747C6.04393 32.7084 6.22521 32.7835 6.41423 32.7835H26.3695C26.5585 32.7835 26.7398 32.7084 26.8734 32.5747C27.0071 32.4411 27.0822 32.2598 27.0822 32.0708V20.6678C27.0822 20.4787 27.0071 20.2975 26.8734 20.1638C26.7398 20.0302 26.5585 19.9551 26.3695 19.9551ZM25.6568 31.3581H7.12691V21.3805H25.6568V31.3581Z" fill="#042A2B"/>
<path d="M13.0376 23.0144L10.1868 25.8652L11.1947 26.8731L14.0455 24.0223L13.0376 23.0144Z" fill="#042A2B"/>
<path d="M18.0258 22.3016L11.6116 28.7158L12.6195 29.7237L19.0337 23.3095L18.0258 22.3016Z" fill="#042A2B"/>
<path d="M19.4513 25.865L16.6005 28.7158L17.6084 29.7237L20.4592 26.8729L19.4513 25.865Z" fill="#042A2B"/>
</svg>
