<svg width="53" height="66" viewBox="0 0 53 66" fill="none" xmlns="http://www.w3.org/2000/svg">
<g clip-path="url(#clip0)">
<path d="M37.8188 31.0563H40.8305V34.0574C40.8305 34.2762 40.9177 34.4861 41.073 34.6408C41.2283 34.7955 41.439 34.8824 41.6586 34.8824C41.8782 34.8824 42.0889 34.7955 42.2442 34.6408C42.3995 34.4861 42.4867 34.2762 42.4867 34.0574V31.0563H45.4984C45.718 31.0563 45.9287 30.9694 46.084 30.8147C46.2393 30.66 46.3265 30.4501 46.3265 30.2313C46.3265 30.0125 46.2393 29.8027 46.084 29.648C45.9287 29.4933 45.718 29.4063 45.4984 29.4063H42.4867V26.4061C42.4867 26.1873 42.3995 25.9774 42.2442 25.8227C42.0889 25.668 41.8782 25.5811 41.6586 25.5811C41.439 25.5811 41.2283 25.668 41.073 25.8227C40.9177 25.9774 40.8305 26.1873 40.8305 26.4061V29.4063H37.8188C37.5992 29.4063 37.3886 29.4933 37.2333 29.648C37.078 29.8027 36.9907 30.0125 36.9907 30.2313C36.9907 30.4501 37.078 30.66 37.2333 30.8147C37.3886 30.9694 37.5992 31.0563 37.8188 31.0563Z" fill="#042A2B"/>
<path d="M9.09476 48.2668L5.44339 48.9081C4.79718 49.0156 4.13449 48.8646 3.59952 48.4878C3.06455 48.111 2.70059 47.539 2.58683 46.8962C2.47307 46.2534 2.61872 45.5919 2.99209 45.0556C3.36546 44.5192 3.93633 44.1515 4.58048 44.0324L13.5507 42.4573C13.9287 42.3893 14.3174 42.4103 14.6858 42.5184C15.0542 42.6265 15.3922 42.8188 15.6728 43.0801C15.8344 43.2258 16.0471 43.3023 16.2649 43.2928C16.4827 43.2833 16.6879 43.1886 16.8361 43.0294C16.9843 42.8701 17.0634 42.659 17.0564 42.442C17.0494 42.2249 16.9567 42.0194 16.7986 41.87C16.3315 41.4342 15.7685 41.1133 15.1547 40.9331C14.5409 40.753 13.8933 40.7184 13.2636 40.8323L4.29254 42.408C3.27366 42.5877 2.3592 43.1409 1.72917 43.9586C1.09914 44.7763 0.799182 45.7993 0.888334 46.8263C0.977487 47.8533 1.44929 48.8099 2.21089 49.5077C2.97248 50.2055 3.96868 50.594 5.00341 50.5968C5.24744 50.5965 5.49097 50.5749 5.73125 50.5324L9.38261 49.8911C9.59366 49.8477 9.7794 49.724 9.9004 49.5464C10.0214 49.3687 10.0681 49.1511 10.0306 48.9397C9.99316 48.7283 9.87443 48.5397 9.69967 48.4141C9.52491 48.2885 9.30788 48.2357 9.09468 48.2669L9.09476 48.2668Z" fill="#042A2B"/>
<path d="M46.7647 11.7397V9.2438H48.8989C49.1185 9.2438 49.3292 9.15688 49.4845 9.00216C49.6398 8.84744 49.727 8.6376 49.727 8.4188V2.475C49.7263 1.81881 49.4643 1.1897 48.9986 0.725707C48.5328 0.26171 47.9013 0.00072062 47.2427 0H25.9695C25.3108 0.00072062 24.6793 0.26171 24.2135 0.725707C23.7478 1.1897 23.4858 1.81881 23.4851 2.475V8.4188C23.4851 8.6376 23.5723 8.84744 23.7276 9.00216C23.8829 9.15688 24.0936 9.2438 24.3132 9.2438H26.5579V11.7164C25.0435 11.9184 23.6539 12.6607 22.647 13.8056C21.64 14.9505 21.084 16.4204 21.0821 17.9426V44.55H15.4739C14.3757 44.55 13.3225 44.9846 12.546 45.7582C11.7695 46.5318 11.3333 47.581 11.3333 48.675C11.3333 49.769 11.7695 50.8182 12.546 51.5918C13.3225 52.3654 14.3757 52.8 15.4739 52.8H24.5833C25.5373 52.7987 26.4617 52.4697 27.2007 51.8686C27.9397 51.2675 28.4481 50.431 28.6402 49.5H50.3401C50.8144 49.4995 51.269 49.3116 51.6044 48.9775C51.9397 48.6434 52.1284 48.1905 52.1288 47.718V17.9425C52.1262 16.4407 51.5838 14.9894 50.5998 13.8516C49.6158 12.7137 48.2553 11.9646 46.7647 11.7397ZM25.1413 7.5938V2.475C25.1415 2.25626 25.2289 2.04655 25.3841 1.89188C25.5394 1.73721 25.7499 1.65022 25.9695 1.65H47.2427C47.4623 1.65022 47.6728 1.73721 47.8281 1.89188C47.9833 2.04655 48.0706 2.25626 48.0709 2.475V7.5938H45.6296V6.67656C45.6296 6.45776 45.5424 6.24791 45.3871 6.0932C45.2318 5.93848 45.0211 5.85156 44.8015 5.85156C44.5819 5.85156 44.3712 5.93848 44.2159 6.0932C44.0606 6.24791 43.9734 6.45776 43.9734 6.67656V7.5938H41.5316V6.67656C41.5316 6.45776 41.4443 6.24791 41.289 6.0932C41.1337 5.93848 40.9231 5.85156 40.7035 5.85156C40.4838 5.85156 40.2732 5.93848 40.1179 6.0932C39.9626 6.24791 39.8753 6.45776 39.8753 6.67656V7.5938H37.4338V6.67656C37.4338 6.45776 37.3465 6.24791 37.1912 6.0932C37.0359 5.93848 36.8253 5.85156 36.6056 5.85156C36.386 5.85156 36.1754 5.93848 36.0201 6.0932C35.8648 6.24791 35.7775 6.45776 35.7775 6.67656V7.5938H33.336V6.67656C33.336 6.45776 33.2488 6.24791 33.0935 6.0932C32.9382 5.93848 32.7275 5.85156 32.5079 5.85156C32.2883 5.85156 32.0776 5.93848 31.9223 6.0932C31.767 6.24791 31.6798 6.45776 31.6798 6.67656V7.5938H29.2391V6.67656C29.2391 6.45776 29.1518 6.24791 28.9965 6.0932C28.8412 5.93848 28.6306 5.85156 28.4109 5.85156C28.1913 5.85156 27.9807 5.93848 27.8254 6.0932C27.6701 6.24791 27.5828 6.45776 27.5828 6.67656V7.5938H25.1413ZM24.5833 51.15H15.4739C14.815 51.15 14.1831 50.8892 13.7172 50.4251C13.2512 49.9609 12.9895 49.3314 12.9895 48.675C12.9895 48.0186 13.2512 47.3891 13.7172 46.9249C14.1831 46.4608 14.815 46.2 15.4739 46.2H24.5833C25.2421 46.2 25.8741 46.4608 26.34 46.9249C26.8059 47.3891 27.0676 48.0186 27.0676 48.675C27.0676 49.3314 26.8059 49.9609 26.34 50.4251C25.8741 50.8892 25.2421 51.15 24.5833 51.15ZM50.34 47.85H28.6402C28.4481 46.919 27.9398 46.0825 27.2008 45.4814C26.4618 44.8802 25.5374 44.5513 24.5833 44.55H22.7386V17.9425C22.74 16.715 23.23 15.5381 24.1013 14.6701C24.9726 13.8021 26.1539 13.3138 27.386 13.3124H28.2142V9.2438H45.1079V11.6624H36.6056C36.386 11.6624 36.1754 11.7493 36.0201 11.904C35.8648 12.0587 35.7775 12.2686 35.7775 12.4874C35.7775 12.7062 35.8648 12.916 36.0201 13.0707C36.1754 13.2254 36.386 13.3124 36.6056 13.3124H45.825C47.0572 13.3137 48.2386 13.802 49.1099 14.67C49.9812 15.538 50.4713 16.7149 50.4727 17.9425V19.8008H32.0153C31.7956 19.8008 31.585 19.8877 31.4297 20.0425C31.2744 20.1972 31.1871 20.407 31.1871 20.6258V39.8385C31.1871 39.9469 31.2084 40.0542 31.25 40.1543C31.2916 40.2544 31.3526 40.3454 31.4295 40.422C31.5065 40.4986 31.5978 40.5594 31.6983 40.6008C31.7988 40.6423 31.9065 40.6636 32.0153 40.6635H50.4727V47.718C50.4725 47.753 50.4584 47.7864 50.4336 47.8111C50.4088 47.8359 50.3752 47.8498 50.3401 47.85H50.34ZM50.4725 39.0135H32.8434V21.4508H50.4727L50.4725 39.0135Z" fill="#042A2B"/>
</g>
<defs>
<clipPath id="clip0">
<rect width="53" height="66" fill="white"/>
</clipPath>
</defs>
</svg>
