<svg xmlns="http://www.w3.org/2000/svg" xmlns:xlink="http://www.w3.org/1999/xlink" version="1.1" x="0px" y="0px" viewBox="0 0 100 125" enable-background="new 0 0 100 100" xml:space="preserve"><g><path d="M58.256,68.293c0.107-0.374,0.182-0.764,0.182-1.175V66.59c0-1.023-0.367-1.948-0.953-2.66   c-0.078-12.16-10.983-22.032-24.383-22.032S8.796,51.77,8.719,63.931c-0.585,0.712-0.951,1.637-0.951,2.659v0.528   c0,0.411,0.074,0.8,0.181,1.174c-0.507,0.24-0.86,0.753-0.86,1.352v7.292c0,0.828,0.672,1.5,1.5,1.5h49.025   c0.828,0,1.5-0.672,1.5-1.5v-7.292C59.113,69.047,58.762,68.535,58.256,68.293z M10.768,67.118V66.59   c0-0.548,0.344-1.029,0.736-1.029h43.193c0.395,0,0.74,0.481,0.74,1.029v0.528c0,0.546-0.346,1.025-0.74,1.025H11.504   C11.111,68.144,10.768,67.664,10.768,67.118z M33.102,44.897c11.228,0,20.442,7.797,21.302,17.663H11.8   C12.659,52.694,21.874,44.897,33.102,44.897z M56.113,75.436H10.088v-4.292h1.416h43.193h1.416V75.436z"/><path d="M92.873,21.263c-0.188-0.807-0.992-1.307-1.801-1.121l-8.25,1.919c-0.535,0.124-0.96,0.531-1.105,1.062l-1.975,7.142   H62.289c-0.416,0-0.813,0.173-1.097,0.477c-0.283,0.304-0.429,0.712-0.399,1.127l3.225,46.634c0.054,0.786,0.708,1.396,1.496,1.396   h20.426c0.796,0,1.454-0.622,1.498-1.417l2.578-46.634c0.022-0.412-0.125-0.814-0.408-1.114c-0.283-0.299-0.678-0.469-1.09-0.469   h-5.663l1.516-5.483l7.382-1.717C92.559,22.876,93.061,22.069,92.873,21.263z M78.913,33.264l-2.694,9.746H64.57l-0.674-9.746   H78.913z M84.521,76.897H66.913L64.777,46.01H75.39l-1.364,4.935c-0.222,0.798,0.247,1.624,1.046,1.845   c0.134,0.037,0.268,0.055,0.4,0.055c0.657,0,1.261-0.436,1.444-1.101l1.585-5.733h7.728L84.521,76.897z M86.933,33.264   l-0.539,9.746H79.33l2.694-9.746H86.933z"/></g><text x="0" y="115" fill="#000000" font-size="5px" font-weight="bold" font-family="'Helvetica Neue', Helvetica, Arial-Unicode, Arial, Sans-serif">Created by Rudez Studio</text><text x="0" y="120" fill="#000000" font-size="5px" font-weight="bold" font-family="'Helvetica Neue', Helvetica, Arial-Unicode, Arial, Sans-serif">from the Noun Project</text></svg>