<svg width="39" height="39" viewBox="0 0 39 39" fill="none" xmlns="http://www.w3.org/2000/svg">
<circle cx="19.5" cy="19.5" r="18.5" stroke="#F8F8F9" stroke-width="2"/>
<path d="M29.0333 32.8248V30.4415C29.0333 29.1773 28.5311 27.9649 27.6372 27.0709C26.7433 26.177 25.5309 25.6748 24.2667 25.6748H14.7333C13.4691 25.6748 12.2567 26.177 11.3628 27.0709C10.4689 27.9649 9.96667 29.1773 9.96667 30.4415V32.8248" stroke="#F6F6F6" stroke-width="2" stroke-linecap="round" stroke-linejoin="round"/>
<path d="M19.4999 20.9083C22.1325 20.9083 24.2666 18.7742 24.2666 16.1417C24.2666 13.5091 22.1325 11.375 19.4999 11.375C16.8674 11.375 14.7333 13.5091 14.7333 16.1417C14.7333 18.7742 16.8674 20.9083 19.4999 20.9083Z" stroke="#F6F6F6" stroke-width="2" stroke-linecap="round" stroke-linejoin="round"/>
</svg>
